<svg width="30" height="30" fill="none" xmlns="http://www.w3.org/2000/svg"><circle cx="15.4" cy="14.6" r="14.6" fill="#FCFCFC"/><circle cx="15.4" cy="14.6" r="14.6" fill="#F4F4F4"/><g opacity=".6"><path d="M10.2 10.2c0-.4.4-.7.8-.7h8.8c.4 0 .7.3.7.7V19c0 .4-.3.8-.7.8H11a.8.8 0 01-.8-.8v-8.8z" fill="#000"/><path d="M13.4 18v-4.6h-1.6v4.7h1.6zm-.8-5.2c.5 0 .9-.4.9-.8 0-.5-.4-.8-1-.8-.4 0-.8.3-.8.8 0 .4.3.8.9.8zm1.6 5.3h1.6v-2.6-.4c.1-.3.4-.6.8-.6.6 0 .8.5.8 1.1v2.5H19v-2.7c0-1.4-.8-2-1.8-2-.9 0-1.2.4-1.4.7v-.7h-1.6v4.7z" fill="#fff"/></g></svg>